<svg width="180" height="40" viewBox="0 0 180 40" fill="none" xmlns="http://www.w3.org/2000/svg" aria-labelledby="title">
  <title>who knows, man</title>
  <path d="M8 22c3-4 5-8 7-8s2 6 4 6 2-9 4-9 3 10 5 10 3-8 5-8 3 9 5 9 3-8 6-8c3 0 1 12 5 12 4 0 5-12 9-12 3 0 3 9 6 9s3-8 6-8c2 0 2 6 4 6 2 0 3-3 5-5 2-2 5-2 6 2 1 4-2 11-7 11s-8-4-8-4-1 6-6 6-7-6-7-6-2 6-6 6-6-6-6-6-2 6-6 6-7-6-7-6-2 6-6 6-7-6-7-6-1 5-6 5-7-7-7-7l-4 6" stroke="#1b1b1b" stroke-width="2.2" stroke-linecap="round" stroke-linejoin="round"/>
</svg>
